<mxfile host="app.diagrams.net" modified="2023-12-30T09:20:49.268Z" agent="Mozilla/5.0 (Windows NT 10.0; Win64; x64) AppleWebKit/537.36 (KHTML, like Gecko) Chrome/120.0.0.0 Safari/537.36" etag="Sdvdsxue-13o1IRJD0ty" version="22.1.16" type="device">
  <diagram name="ページ1" id="YxXK643Pfl-rKASDYfHm">
    <mxGraphModel dx="989" dy="509" grid="1" gridSize="10" guides="1" tooltips="1" connect="1" arrows="1" fold="1" page="1" pageScale="1" pageWidth="827" pageHeight="1169" math="0" shadow="0">
      <root>
        <mxCell id="0" />
        <mxCell id="1" parent="0" />
        <mxCell id="loG1sLiP6NZWTCCwNQnP-52" value="Docker Container Edition Scope" style="rounded=1;whiteSpace=wrap;html=1;dashed=1;arcSize=9;verticalAlign=bottom;fontSize=11;fontColor=#FF3333;strokeColor=#FF3333;fillColor=none;" vertex="1" parent="1">
          <mxGeometry x="340" y="80" width="280" height="230" as="geometry" />
        </mxCell>
        <mxCell id="loG1sLiP6NZWTCCwNQnP-9" style="edgeStyle=orthogonalEdgeStyle;rounded=0;orthogonalLoop=1;jettySize=auto;html=1;" edge="1" parent="1" source="loG1sLiP6NZWTCCwNQnP-1" target="loG1sLiP6NZWTCCwNQnP-3">
          <mxGeometry relative="1" as="geometry">
            <Array as="points">
              <mxPoint x="480" y="210" />
              <mxPoint x="480" y="210" />
            </Array>
          </mxGeometry>
        </mxCell>
        <mxCell id="loG1sLiP6NZWTCCwNQnP-10" value="cmd&lt;br&gt;subscrive" style="edgeLabel;html=1;align=center;verticalAlign=middle;resizable=0;points=[];labelBackgroundColor=none;" vertex="1" connectable="0" parent="loG1sLiP6NZWTCCwNQnP-9">
          <mxGeometry x="-0.2484" relative="1" as="geometry">
            <mxPoint x="9" as="offset" />
          </mxGeometry>
        </mxCell>
        <mxCell id="loG1sLiP6NZWTCCwNQnP-13" style="edgeStyle=orthogonalEdgeStyle;rounded=0;orthogonalLoop=1;jettySize=auto;html=1;" edge="1" parent="1" source="loG1sLiP6NZWTCCwNQnP-1" target="loG1sLiP6NZWTCCwNQnP-2">
          <mxGeometry relative="1" as="geometry">
            <Array as="points">
              <mxPoint x="310" y="240" />
              <mxPoint x="310" y="240" />
            </Array>
          </mxGeometry>
        </mxCell>
        <mxCell id="loG1sLiP6NZWTCCwNQnP-14" value="result&lt;br&gt;subscrive" style="edgeLabel;html=1;align=center;verticalAlign=middle;resizable=0;points=[];labelBackgroundColor=none;" vertex="1" connectable="0" parent="loG1sLiP6NZWTCCwNQnP-13">
          <mxGeometry x="0.3473" y="-1" relative="1" as="geometry">
            <mxPoint x="10" as="offset" />
          </mxGeometry>
        </mxCell>
        <mxCell id="loG1sLiP6NZWTCCwNQnP-1" value="Redis" style="outlineConnect=0;dashed=0;verticalLabelPosition=bottom;verticalAlign=top;align=center;html=1;shape=mxgraph.aws3.redis;fillColor=#2E73B8;gradientColor=none;fontColor=#007FFF;fontStyle=1" vertex="1" parent="1">
          <mxGeometry x="360" y="190" width="60" height="63" as="geometry" />
        </mxCell>
        <mxCell id="loG1sLiP6NZWTCCwNQnP-11" style="edgeStyle=orthogonalEdgeStyle;rounded=0;orthogonalLoop=1;jettySize=auto;html=1;" edge="1" parent="1" source="loG1sLiP6NZWTCCwNQnP-3" target="loG1sLiP6NZWTCCwNQnP-1">
          <mxGeometry relative="1" as="geometry">
            <Array as="points">
              <mxPoint x="480" y="240" />
              <mxPoint x="480" y="240" />
            </Array>
          </mxGeometry>
        </mxCell>
        <mxCell id="loG1sLiP6NZWTCCwNQnP-12" value="result&lt;br&gt;publish" style="edgeLabel;html=1;align=center;verticalAlign=middle;resizable=0;points=[];labelBackgroundColor=none;" vertex="1" connectable="0" parent="loG1sLiP6NZWTCCwNQnP-11">
          <mxGeometry x="0.2405" relative="1" as="geometry">
            <mxPoint x="8" as="offset" />
          </mxGeometry>
        </mxCell>
        <mxCell id="loG1sLiP6NZWTCCwNQnP-15" style="edgeStyle=orthogonalEdgeStyle;rounded=0;orthogonalLoop=1;jettySize=auto;html=1;" edge="1" parent="1" source="loG1sLiP6NZWTCCwNQnP-3" target="loG1sLiP6NZWTCCwNQnP-4">
          <mxGeometry relative="1" as="geometry">
            <Array as="points">
              <mxPoint x="620" y="210" />
              <mxPoint x="620" y="210" />
            </Array>
          </mxGeometry>
        </mxCell>
        <mxCell id="loG1sLiP6NZWTCCwNQnP-16" value="deploy&lt;br&gt;model" style="edgeLabel;html=1;align=center;verticalAlign=middle;resizable=0;points=[];labelBackgroundColor=none;" vertex="1" connectable="0" parent="loG1sLiP6NZWTCCwNQnP-15">
          <mxGeometry x="-0.3886" relative="1" as="geometry">
            <mxPoint x="7" as="offset" />
          </mxGeometry>
        </mxCell>
        <mxCell id="loG1sLiP6NZWTCCwNQnP-3" value="iinfer server" style="sketch=0;points=[[0,0,0],[0.25,0,0],[0.5,0,0],[0.75,0,0],[1,0,0],[0,1,0],[0.25,1,0],[0.5,1,0],[0.75,1,0],[1,1,0],[0,0.25,0],[0,0.5,0],[0,0.75,0],[1,0.25,0],[1,0.5,0],[1,0.75,0]];outlineConnect=0;fontColor=#FF3333;fillColor=#FF6666;strokeColor=#ffffff;dashed=0;verticalLabelPosition=bottom;verticalAlign=top;align=center;html=1;fontSize=12;fontStyle=1;aspect=fixed;shape=mxgraph.aws4.resourceIcon;resIcon=mxgraph.aws4.command_line_interface;" vertex="1" parent="1">
          <mxGeometry x="500" y="192.5" width="58" height="58" as="geometry" />
        </mxCell>
        <mxCell id="loG1sLiP6NZWTCCwNQnP-17" style="edgeStyle=orthogonalEdgeStyle;rounded=0;orthogonalLoop=1;jettySize=auto;html=1;" edge="1" parent="1" source="loG1sLiP6NZWTCCwNQnP-4" target="loG1sLiP6NZWTCCwNQnP-3">
          <mxGeometry relative="1" as="geometry">
            <Array as="points">
              <mxPoint x="610" y="240" />
              <mxPoint x="610" y="240" />
            </Array>
          </mxGeometry>
        </mxCell>
        <mxCell id="loG1sLiP6NZWTCCwNQnP-18" value="load&lt;br&gt;model" style="edgeLabel;html=1;align=center;verticalAlign=middle;resizable=0;points=[];labelBackgroundColor=none;" vertex="1" connectable="0" parent="loG1sLiP6NZWTCCwNQnP-17">
          <mxGeometry x="0.21" y="1" relative="1" as="geometry">
            <mxPoint as="offset" />
          </mxGeometry>
        </mxCell>
        <mxCell id="loG1sLiP6NZWTCCwNQnP-4" value="~/.iinfer" style="sketch=0;pointerEvents=1;shadow=0;dashed=0;html=1;strokeColor=none;fillColor=#FF6666;labelPosition=center;verticalLabelPosition=bottom;verticalAlign=top;outlineConnect=0;align=center;shape=mxgraph.office.concepts.folders;fontColor=#FF3333;" vertex="1" parent="1">
          <mxGeometry x="640" y="195" width="57" height="53" as="geometry" />
        </mxCell>
        <mxCell id="loG1sLiP6NZWTCCwNQnP-5" style="edgeStyle=orthogonalEdgeStyle;rounded=0;orthogonalLoop=1;jettySize=auto;html=1;" edge="1" parent="1" source="loG1sLiP6NZWTCCwNQnP-2">
          <mxGeometry relative="1" as="geometry">
            <mxPoint x="360" y="210" as="targetPoint" />
            <Array as="points">
              <mxPoint x="360" y="210" />
            </Array>
          </mxGeometry>
        </mxCell>
        <mxCell id="loG1sLiP6NZWTCCwNQnP-6" value="cmd&lt;br&gt;publish" style="edgeLabel;html=1;align=center;verticalAlign=middle;resizable=0;points=[];labelBackgroundColor=none;" vertex="1" connectable="0" parent="loG1sLiP6NZWTCCwNQnP-5">
          <mxGeometry x="0.2963" y="2" relative="1" as="geometry">
            <mxPoint x="-24" as="offset" />
          </mxGeometry>
        </mxCell>
        <mxCell id="loG1sLiP6NZWTCCwNQnP-24" style="edgeStyle=orthogonalEdgeStyle;rounded=0;orthogonalLoop=1;jettySize=auto;html=1;entryX=0.75;entryY=0;entryDx=0;entryDy=0;entryPerimeter=0;" edge="1" parent="1" source="loG1sLiP6NZWTCCwNQnP-22" target="loG1sLiP6NZWTCCwNQnP-2">
          <mxGeometry relative="1" as="geometry">
            <Array as="points">
              <mxPoint x="265" y="160" />
              <mxPoint x="244" y="160" />
            </Array>
          </mxGeometry>
        </mxCell>
        <mxCell id="loG1sLiP6NZWTCCwNQnP-25" value="capture" style="edgeLabel;html=1;align=center;verticalAlign=middle;resizable=0;points=[];" vertex="1" connectable="0" parent="loG1sLiP6NZWTCCwNQnP-24">
          <mxGeometry x="-0.0515" y="-1" relative="1" as="geometry">
            <mxPoint x="-2" y="11" as="offset" />
          </mxGeometry>
        </mxCell>
        <mxCell id="loG1sLiP6NZWTCCwNQnP-26" style="edgeStyle=orthogonalEdgeStyle;rounded=0;orthogonalLoop=1;jettySize=auto;html=1;entryX=0.25;entryY=0;entryDx=0;entryDy=0;entryPerimeter=0;" edge="1" parent="1" source="loG1sLiP6NZWTCCwNQnP-23" target="loG1sLiP6NZWTCCwNQnP-2">
          <mxGeometry relative="1" as="geometry">
            <Array as="points">
              <mxPoint x="194" y="160" />
              <mxPoint x="214" y="160" />
            </Array>
          </mxGeometry>
        </mxCell>
        <mxCell id="loG1sLiP6NZWTCCwNQnP-27" value="load" style="edgeLabel;html=1;align=center;verticalAlign=middle;resizable=0;points=[];" vertex="1" connectable="0" parent="loG1sLiP6NZWTCCwNQnP-26">
          <mxGeometry x="-0.0816" relative="1" as="geometry">
            <mxPoint x="4" y="10" as="offset" />
          </mxGeometry>
        </mxCell>
        <mxCell id="loG1sLiP6NZWTCCwNQnP-43" style="edgeStyle=orthogonalEdgeStyle;rounded=0;orthogonalLoop=1;jettySize=auto;html=1;exitX=1.003;exitY=0.679;exitDx=0;exitDy=0;exitPerimeter=0;" edge="1" parent="1" source="loG1sLiP6NZWTCCwNQnP-31">
          <mxGeometry relative="1" as="geometry">
            <mxPoint x="137" y="230" as="sourcePoint" />
            <mxPoint x="200" y="230" as="targetPoint" />
          </mxGeometry>
        </mxCell>
        <mxCell id="loG1sLiP6NZWTCCwNQnP-44" value="postprocess" style="edgeLabel;html=1;align=center;verticalAlign=middle;resizable=0;points=[];" vertex="1" connectable="0" parent="loG1sLiP6NZWTCCwNQnP-43">
          <mxGeometry x="-0.3034" relative="1" as="geometry">
            <mxPoint x="14" as="offset" />
          </mxGeometry>
        </mxCell>
        <mxCell id="loG1sLiP6NZWTCCwNQnP-31" value="predict json" style="sketch=0;aspect=fixed;pointerEvents=1;shadow=0;dashed=0;html=1;strokeColor=none;labelPosition=center;verticalLabelPosition=bottom;verticalAlign=top;align=center;fillColor=#6666FF;shape=mxgraph.azure.code_file;fontColor=#3333FF;" vertex="1" parent="1">
          <mxGeometry x="60" y="196.5" width="47" height="50" as="geometry" />
        </mxCell>
        <mxCell id="loG1sLiP6NZWTCCwNQnP-32" style="edgeStyle=orthogonalEdgeStyle;rounded=0;orthogonalLoop=1;jettySize=auto;html=1;entryX=1.076;entryY=0.279;entryDx=0;entryDy=0;entryPerimeter=0;" edge="1" parent="1" target="loG1sLiP6NZWTCCwNQnP-31">
          <mxGeometry relative="1" as="geometry">
            <mxPoint x="200" y="210" as="sourcePoint" />
            <mxPoint x="137" y="210" as="targetPoint" />
          </mxGeometry>
        </mxCell>
        <mxCell id="loG1sLiP6NZWTCCwNQnP-40" value="result" style="edgeLabel;html=1;align=center;verticalAlign=middle;resizable=0;points=[];" vertex="1" connectable="0" parent="loG1sLiP6NZWTCCwNQnP-32">
          <mxGeometry x="0.0023" relative="1" as="geometry">
            <mxPoint as="offset" />
          </mxGeometry>
        </mxCell>
        <mxCell id="loG1sLiP6NZWTCCwNQnP-38" style="edgeStyle=orthogonalEdgeStyle;rounded=0;orthogonalLoop=1;jettySize=auto;html=1;exitX=0.708;exitY=1.02;exitDx=0;exitDy=0;exitPerimeter=0;" edge="1" parent="1" source="loG1sLiP6NZWTCCwNQnP-34">
          <mxGeometry relative="1" as="geometry">
            <mxPoint x="540.0005747126437" y="146" as="sourcePoint" />
            <mxPoint x="540.1614942528736" y="192.5" as="targetPoint" />
            <Array as="points">
              <mxPoint x="541" y="169" />
              <mxPoint x="540" y="169" />
            </Array>
          </mxGeometry>
        </mxCell>
        <mxCell id="loG1sLiP6NZWTCCwNQnP-39" value="result" style="edgeLabel;html=1;align=center;verticalAlign=middle;resizable=0;points=[];" vertex="1" connectable="0" parent="loG1sLiP6NZWTCCwNQnP-38">
          <mxGeometry x="0.1136" relative="1" as="geometry">
            <mxPoint x="10" y="1" as="offset" />
          </mxGeometry>
        </mxCell>
        <mxCell id="loG1sLiP6NZWTCCwNQnP-36" style="edgeStyle=orthogonalEdgeStyle;rounded=0;orthogonalLoop=1;jettySize=auto;html=1;entryX=0.201;entryY=1.006;entryDx=0;entryDy=0;entryPerimeter=0;" edge="1" parent="1" target="loG1sLiP6NZWTCCwNQnP-34">
          <mxGeometry relative="1" as="geometry">
            <mxPoint x="510.6514942528736" y="192.5" as="sourcePoint" />
            <mxPoint x="510.00379999999996" y="147.95000000000005" as="targetPoint" />
          </mxGeometry>
        </mxCell>
        <mxCell id="loG1sLiP6NZWTCCwNQnP-37" value="image" style="edgeLabel;html=1;align=center;verticalAlign=middle;resizable=0;points=[];" vertex="1" connectable="0" parent="loG1sLiP6NZWTCCwNQnP-36">
          <mxGeometry x="-0.1528" relative="1" as="geometry">
            <mxPoint x="-1" as="offset" />
          </mxGeometry>
        </mxCell>
        <mxCell id="loG1sLiP6NZWTCCwNQnP-41" value="jadge json" style="sketch=0;aspect=fixed;pointerEvents=1;shadow=0;dashed=0;html=1;strokeColor=none;labelPosition=center;verticalLabelPosition=bottom;verticalAlign=top;align=center;fillColor=#6666FF;shape=mxgraph.azure.code_file;fontColor=#3333FF;" vertex="1" parent="1">
          <mxGeometry x="150" y="312.5" width="37.6" height="40" as="geometry" />
        </mxCell>
        <mxCell id="loG1sLiP6NZWTCCwNQnP-42" style="edgeStyle=orthogonalEdgeStyle;rounded=0;orthogonalLoop=1;jettySize=auto;html=1;entryX=0.5;entryY=0;entryDx=0;entryDy=0;entryPerimeter=0;" edge="1" parent="1" source="loG1sLiP6NZWTCCwNQnP-2" target="loG1sLiP6NZWTCCwNQnP-41">
          <mxGeometry relative="1" as="geometry">
            <Array as="points">
              <mxPoint x="220" y="290" />
              <mxPoint x="169" y="290" />
            </Array>
          </mxGeometry>
        </mxCell>
        <mxCell id="loG1sLiP6NZWTCCwNQnP-45" value="csv" style="sketch=0;pointerEvents=1;shadow=0;dashed=0;html=1;strokeColor=none;fillColor=#6666FF;labelPosition=center;verticalLabelPosition=bottom;verticalAlign=top;outlineConnect=0;align=center;shape=mxgraph.office.users.csv_file;fontColor=#3333FF;" vertex="1" parent="1">
          <mxGeometry x="198" y="312.5" width="62" height="40" as="geometry" />
        </mxCell>
        <mxCell id="loG1sLiP6NZWTCCwNQnP-46" style="edgeStyle=orthogonalEdgeStyle;rounded=0;orthogonalLoop=1;jettySize=auto;html=1;" edge="1" parent="1" source="loG1sLiP6NZWTCCwNQnP-2" target="loG1sLiP6NZWTCCwNQnP-45">
          <mxGeometry relative="1" as="geometry" />
        </mxCell>
        <mxCell id="loG1sLiP6NZWTCCwNQnP-48" style="edgeStyle=orthogonalEdgeStyle;rounded=0;orthogonalLoop=1;jettySize=auto;html=1;" edge="1" parent="1" source="loG1sLiP6NZWTCCwNQnP-2" target="loG1sLiP6NZWTCCwNQnP-47">
          <mxGeometry relative="1" as="geometry">
            <Array as="points">
              <mxPoint x="240" y="290" />
              <mxPoint x="295" y="290" />
            </Array>
          </mxGeometry>
        </mxCell>
        <mxCell id="loG1sLiP6NZWTCCwNQnP-47" value="HTTP" style="sketch=0;outlineConnect=0;fontColor=#3333FF;gradientColor=none;strokeColor=#6666FF;fillColor=none;dashed=0;verticalLabelPosition=bottom;verticalAlign=top;align=center;html=1;fontSize=12;fontStyle=0;aspect=fixed;shape=mxgraph.aws4.resourceIcon;resIcon=mxgraph.aws4.http_protocol;" vertex="1" parent="1">
          <mxGeometry x="270" y="310" width="45" height="45" as="geometry" />
        </mxCell>
        <mxCell id="loG1sLiP6NZWTCCwNQnP-50" style="edgeStyle=orthogonalEdgeStyle;rounded=0;orthogonalLoop=1;jettySize=auto;html=1;entryX=0.013;entryY=0.857;entryDx=0;entryDy=0;entryPerimeter=0;" edge="1" parent="1" source="loG1sLiP6NZWTCCwNQnP-2" target="loG1sLiP6NZWTCCwNQnP-2">
          <mxGeometry relative="1" as="geometry">
            <Array as="points">
              <mxPoint x="210" y="280" />
              <mxPoint x="180" y="280" />
              <mxPoint x="180" y="242" />
            </Array>
          </mxGeometry>
        </mxCell>
        <mxCell id="loG1sLiP6NZWTCCwNQnP-51" value="filter" style="edgeLabel;html=1;align=center;verticalAlign=middle;resizable=0;points=[];" vertex="1" connectable="0" parent="loG1sLiP6NZWTCCwNQnP-50">
          <mxGeometry x="0.2465" y="1" relative="1" as="geometry">
            <mxPoint y="-6" as="offset" />
          </mxGeometry>
        </mxCell>
        <mxCell id="loG1sLiP6NZWTCCwNQnP-2" value="&lt;span style=&quot;background-color: rgb(255, 255, 255);&quot;&gt;&lt;b&gt;iinfer client&lt;/b&gt;&lt;/span&gt;" style="sketch=0;points=[[0,0,0],[0.25,0,0],[0.5,0,0],[0.75,0,0],[1,0,0],[0,1,0],[0.25,1,0],[0.5,1,0],[0.75,1,0],[1,1,0],[0,0.25,0],[0,0.5,0],[0,0.75,0],[1,0.25,0],[1,0.5,0],[1,0.75,0]];outlineConnect=0;fontColor=#3333FF;fillColor=#6666FF;strokeColor=#ffffff;dashed=0;verticalLabelPosition=bottom;verticalAlign=top;align=center;html=1;fontSize=12;fontStyle=0;aspect=fixed;shape=mxgraph.aws4.resourceIcon;resIcon=mxgraph.aws4.command_line_interface;" vertex="1" parent="1">
          <mxGeometry x="200" y="192.5" width="58" height="58" as="geometry" />
        </mxCell>
        <mxCell id="loG1sLiP6NZWTCCwNQnP-34" value="&lt;span style=&quot;background-color: rgb(255, 255, 255);&quot;&gt;&lt;font color=&quot;#ff3333&quot;&gt;ai model&lt;/font&gt;&lt;/span&gt;" style="shape=mxgraph.signs.healthcare.brain;html=1;pointerEvents=1;fillColor=#FF6666;strokeColor=none;verticalLabelPosition=bottom;verticalAlign=top;align=center;" vertex="1" parent="1">
          <mxGeometry x="500" y="90" width="57.65" height="50" as="geometry" />
        </mxCell>
        <mxCell id="loG1sLiP6NZWTCCwNQnP-22" value="camera" style="sketch=0;outlineConnect=0;fontColor=#3333FF;gradientColor=none;fillColor=#6666FF;strokeColor=none;dashed=0;verticalLabelPosition=bottom;verticalAlign=top;align=center;html=1;fontSize=12;fontStyle=0;aspect=fixed;pointerEvents=1;shape=mxgraph.aws4.camera2;labelBackgroundColor=#FFFFFF;" vertex="1" parent="1">
          <mxGeometry x="240" y="94" width="50.32" height="40" as="geometry" />
        </mxCell>
        <mxCell id="loG1sLiP6NZWTCCwNQnP-23" value="image" style="sketch=0;outlineConnect=0;fontColor=#3333FF;gradientColor=none;fillColor=#6666FF;strokeColor=none;dashed=0;verticalLabelPosition=bottom;verticalAlign=top;align=center;html=1;fontSize=12;fontStyle=0;aspect=fixed;pointerEvents=1;shape=mxgraph.aws4.container_registry_image;labelBackgroundColor=#FFFFFF;" vertex="1" parent="1">
          <mxGeometry x="170" y="90" width="48" height="48" as="geometry" />
        </mxCell>
      </root>
    </mxGraphModel>
  </diagram>
</mxfile>
